<?xml version="1.0" encoding="utf-8"?>
<!-- Generator: Adobe Illustrator 26.5.0, SVG Export Plug-In . SVG Version: 6.00 Build 0)  -->
<svg version="1.1" id="Livello_1" xmlns="http://www.w3.org/2000/svg" xmlns:xlink="http://www.w3.org/1999/xlink" x="0px" y="0px"
	 viewBox="0 0 700 700" style="enable-background:new 0 0 700 700;" xml:space="preserve">
<style type="text/css">
	.st0{fill:#FFFFFF;}
</style>
<g>
	<path class="st0" d="M490,46.7H210c-24.7,0-48.5,9.9-66,27.4c-17.5,17.5-27.3,41.2-27.4,66v280c0,24.7,9.9,48.5,27.4,66
		c17.5,17.5,41.2,27.3,66,27.4h280c24.7,0,48.5-9.9,66-27.4c17.5-17.5,27.3-41.2,27.4-66V140c0-24.7-9.9-48.5-27.4-66
		C538.5,56.5,514.7,46.7,490,46.7L490,46.7z M536.7,420c0,12.4-4.9,24.2-13.7,33c-8.8,8.7-20.6,13.7-33,13.7H210
		c-12.4,0-24.2-4.9-33-13.7s-13.7-20.6-13.7-33V140c0-12.4,4.9-24.2,13.7-33s20.6-13.7,33-13.7h280c12.4,0,24.2,4.9,33,13.7
		c8.7,8.8,13.7,20.6,13.7,33V420z"/>
	<path class="st0" d="M350,175.9c-27.6,0-54.1,11-73.6,30.5c-19.5,19.5-30.5,46-30.5,73.6c0,27.6,11,54.1,30.5,73.6
		s46,30.5,73.6,30.5c27.6,0,54.1-11,73.6-30.5c19.5-19.5,30.5-46,30.5-73.6c0-27.6-11-54.1-30.5-73.6S377.6,175.9,350,175.9
		L350,175.9z M350,337.4c-15.2,0-29.8-6.1-40.6-16.8c-10.8-10.8-16.8-25.4-16.8-40.6c0-15.2,6.1-29.8,16.8-40.6
		c10.8-10.8,25.4-16.8,40.6-16.8c15.2,0,29.8,6.1,40.6,16.8s16.8,25.4,16.8,40.6c0,15.2-6.1,29.8-16.8,40.6
		C379.8,331.4,365.2,337.4,350,337.4L350,337.4z"/>
</g>
</svg>
